# xmcd
#
# Track frame offsets:
#	150
#	31552
#	50502
#	88043
#	114432
#	129753
#	160568
#	184003
#	206210
#
# Disc length: 3242
#
# Revision: 1
# Processed by: cddbd v1.5.1PL0 Copyright (c) Steve Scherf et al.
# Submitted via: CDex 1.51
# Normalized: r0:TRMNUM
#
DISCID=670ca809
DTITLE=Tony Valentine - That's Why They Call Me T.V. Blues
DYEAR=2004
DGENRE=Blues
TTITLE0=I'll Play The Blues For You
TTITLE1=What Cha Gonna Do
TTITLE2=Your Breakin' My Heart Baby
TTITLE3=Let The Good Times Roll
TTITLE4=What Can I Do
TTITLE5=Nobody Wants Me But The Blues
TTITLE6=A Sound You Can't Put Down
TTITLE7=Won't You Save Me From The Blues
TTITLE8=Cross The Bridge
EXTD=YEAR: 2004
EXTT0=
EXTT1=
EXTT2=
EXTT3=
EXTT4=
EXTT5=
EXTT6=
EXTT7=
EXTT8=
PLAYORDER=
